<mxfile host="drawio-plugin" modified="2021-10-20T09:24:02.731Z" agent="5.0 (Windows NT 6.1; Win64; x64) AppleWebKit/537.36 (KHTML, like Gecko) Chrome/89.0.4389.114 Safari/537.36" etag="socj0Ib4A2rrN3uuUb7z" version="14.7.4" type="embed"><diagram id="0JC14aYGaywMRRyioeJ0" name="Page-1"><mxGraphModel dx="486" dy="538" grid="1" gridSize="10" guides="1" tooltips="1" connect="1" arrows="1" fold="1" page="1" pageScale="1" pageWidth="827" pageHeight="1169" background="#F4F1DE" math="0" shadow="0"><root><mxCell id="0"/><mxCell id="1" parent="0"/><mxCell id="OKaJMd2PWV-_dP1DHxQt-1" value="КОЛЛЕКТИВ" style="swimlane;childLayout=stackLayout;horizontal=1;startSize=30;horizontalStack=0;rounded=1;fontSize=14;fontStyle=0;strokeWidth=2;resizeParent=0;resizeLast=1;shadow=0;dashed=0;align=center;fillColor=#F2CC8F;strokeColor=#E07A5F;fontColor=#393C56;" parent="1" vertex="1"><mxGeometry x="80" y="40" width="160" height="150" as="geometry"/></mxCell><mxCell id="OKaJMd2PWV-_dP1DHxQt-54" value="направление" style="ellipse;whiteSpace=wrap;html=1;align=center;fontStyle=4;rounded=0;labelBackgroundColor=none;sketch=0;fontSize=17;fontColor=default;strokeColor=#E07A5F;fillColor=#E07A5F;" parent="OKaJMd2PWV-_dP1DHxQt-1" vertex="1"><mxGeometry y="30" width="160" height="40" as="geometry"/></mxCell><mxCell id="OKaJMd2PWV-_dP1DHxQt-55" value="описание" style="ellipse;whiteSpace=wrap;html=1;align=center;rounded=0;labelBackgroundColor=none;sketch=0;fontSize=17;fontColor=default;strokeColor=#E07A5F;fillColor=#F2CC8F;" parent="OKaJMd2PWV-_dP1DHxQt-1" vertex="1"><mxGeometry y="70" width="160" height="40" as="geometry"/></mxCell><mxCell id="OKaJMd2PWV-_dP1DHxQt-61" value="кол-во чел" style="ellipse;whiteSpace=wrap;html=1;align=center;rounded=0;labelBackgroundColor=none;sketch=0;fontSize=17;fontColor=default;strokeColor=#E07A5F;fillColor=#F2CC8F;" parent="OKaJMd2PWV-_dP1DHxQt-1" vertex="1"><mxGeometry y="110" width="160" height="40" as="geometry"/></mxCell><mxCell id="OKaJMd2PWV-_dP1DHxQt-5" value="СОТРУДНИК" style="swimlane;childLayout=stackLayout;horizontal=1;startSize=30;horizontalStack=0;rounded=1;fontSize=14;fontStyle=0;strokeWidth=2;resizeParent=0;resizeLast=1;shadow=0;dashed=0;align=center;fillColor=#F2CC8F;strokeColor=#E07A5F;fontColor=#393C56;" parent="1" vertex="1"><mxGeometry x="300" y="40" width="160" height="150" as="geometry"/></mxCell><mxCell id="OKaJMd2PWV-_dP1DHxQt-62" value="код" style="ellipse;whiteSpace=wrap;html=1;align=center;fontStyle=4;rounded=0;labelBackgroundColor=none;sketch=0;fontSize=17;fontColor=default;strokeColor=#E07A5F;fillColor=#E07A5F;" parent="OKaJMd2PWV-_dP1DHxQt-5" vertex="1"><mxGeometry y="30" width="160" height="40" as="geometry"/></mxCell><mxCell id="OKaJMd2PWV-_dP1DHxQt-64" value="ФИО" style="ellipse;whiteSpace=wrap;html=1;align=center;rounded=0;labelBackgroundColor=none;sketch=0;fontSize=17;fontColor=default;strokeColor=#E07A5F;fillColor=#F2CC8F;" parent="OKaJMd2PWV-_dP1DHxQt-5" vertex="1"><mxGeometry y="70" width="160" height="40" as="geometry"/></mxCell><mxCell id="OKaJMd2PWV-_dP1DHxQt-67" value="специальность" style="ellipse;whiteSpace=wrap;html=1;align=center;rounded=0;labelBackgroundColor=none;sketch=0;fontSize=17;fontColor=default;strokeColor=#E07A5F;fillColor=#F2CC8F;" parent="OKaJMd2PWV-_dP1DHxQt-5" vertex="1"><mxGeometry y="110" width="160" height="40" as="geometry"/></mxCell><mxCell id="OKaJMd2PWV-_dP1DHxQt-7" value="СПЕКТАКЛЬ" style="swimlane;childLayout=stackLayout;horizontal=1;startSize=30;horizontalStack=0;rounded=1;fontSize=14;fontStyle=0;strokeWidth=2;resizeParent=0;resizeLast=1;shadow=0;dashed=0;align=center;fillColor=#F2CC8F;strokeColor=#E07A5F;fontColor=#393C56;" parent="1" vertex="1"><mxGeometry x="520" y="310" width="160" height="230" as="geometry"/></mxCell><mxCell id="OKaJMd2PWV-_dP1DHxQt-102" value="название" style="ellipse;whiteSpace=wrap;html=1;align=center;fontStyle=4;rounded=0;labelBackgroundColor=none;sketch=0;fontSize=17;fontColor=default;strokeColor=#E07A5F;fillColor=#E07A5F;" parent="OKaJMd2PWV-_dP1DHxQt-7" vertex="1"><mxGeometry y="30" width="160" height="40" as="geometry"/></mxCell><mxCell id="OKaJMd2PWV-_dP1DHxQt-110" value="жанр" style="ellipse;whiteSpace=wrap;html=1;align=center;rounded=0;labelBackgroundColor=none;sketch=0;fontSize=17;fontColor=#000000;strokeColor=#E07A5F;strokeWidth=2;fillColor=#F2CC8F;gradientColor=none;" parent="OKaJMd2PWV-_dP1DHxQt-7" vertex="1"><mxGeometry y="70" width="160" height="40" as="geometry"/></mxCell><mxCell id="OKaJMd2PWV-_dP1DHxQt-112" value="описание" style="ellipse;whiteSpace=wrap;html=1;align=center;rounded=0;labelBackgroundColor=none;sketch=0;fontSize=17;fontColor=#000000;strokeColor=#E07A5F;strokeWidth=2;fillColor=#F2CC8F;gradientColor=none;" parent="OKaJMd2PWV-_dP1DHxQt-7" vertex="1"><mxGeometry y="110" width="160" height="40" as="geometry"/></mxCell><mxCell id="OKaJMd2PWV-_dP1DHxQt-109" value="продолжительность" style="ellipse;whiteSpace=wrap;html=1;align=center;rounded=0;labelBackgroundColor=none;sketch=0;fontSize=17;fontColor=#000000;strokeColor=#E07A5F;strokeWidth=2;fillColor=#F2CC8F;gradientColor=none;" parent="OKaJMd2PWV-_dP1DHxQt-7" vertex="1"><mxGeometry y="150" width="160" height="40" as="geometry"/></mxCell><mxCell id="OKaJMd2PWV-_dP1DHxQt-113" value="возраст рейтинг" style="ellipse;whiteSpace=wrap;html=1;align=center;rounded=0;labelBackgroundColor=none;sketch=0;fontSize=17;fontColor=#000000;strokeColor=#E07A5F;strokeWidth=2;fillColor=#F2CC8F;gradientColor=none;" parent="OKaJMd2PWV-_dP1DHxQt-7" vertex="1"><mxGeometry y="190" width="160" height="40" as="geometry"/></mxCell><mxCell id="OKaJMd2PWV-_dP1DHxQt-15" value="ПОСТАНОВЩИК" style="swimlane;childLayout=stackLayout;horizontal=1;startSize=30;horizontalStack=0;rounded=1;fontSize=14;fontStyle=0;strokeWidth=2;resizeParent=0;resizeLast=1;shadow=0;dashed=0;align=center;fillColor=#F2CC8F;strokeColor=#E07A5F;fontColor=#393C56;" parent="1" vertex="1"><mxGeometry x="80" y="310" width="160" height="190" as="geometry"/></mxCell><mxCell id="OKaJMd2PWV-_dP1DHxQt-116" value="UID" style="ellipse;whiteSpace=wrap;html=1;align=center;fontStyle=4;rounded=0;labelBackgroundColor=none;sketch=0;fontSize=17;fontColor=default;strokeColor=#E07A5F;fillColor=#E07A5F;" parent="OKaJMd2PWV-_dP1DHxQt-15" vertex="1"><mxGeometry y="30" width="160" height="40" as="geometry"/></mxCell><mxCell id="OKaJMd2PWV-_dP1DHxQt-118" value="год постановки" style="ellipse;whiteSpace=wrap;html=1;align=center;fontStyle=4;rounded=0;labelBackgroundColor=none;sketch=0;fontSize=17;fontColor=default;strokeColor=#E07A5F;fillColor=#E07A5F;" parent="OKaJMd2PWV-_dP1DHxQt-15" vertex="1"><mxGeometry y="70" width="160" height="40" as="geometry"/></mxCell><mxCell id="OKaJMd2PWV-_dP1DHxQt-117" value="название спек" style="ellipse;whiteSpace=wrap;html=1;align=center;fontStyle=4;rounded=0;labelBackgroundColor=none;sketch=0;fontSize=17;fontColor=default;strokeColor=#E07A5F;fillColor=#E07A5F;" parent="OKaJMd2PWV-_dP1DHxQt-15" vertex="1"><mxGeometry y="110" width="160" height="40" as="geometry"/></mxCell><mxCell id="OKaJMd2PWV-_dP1DHxQt-126" value="ФИО" style="ellipse;whiteSpace=wrap;html=1;align=center;rounded=0;labelBackgroundColor=none;sketch=0;fontSize=17;fontColor=#000000;strokeColor=#E07A5F;strokeWidth=2;fillColor=#F2CC8F;gradientColor=none;" parent="OKaJMd2PWV-_dP1DHxQt-15" vertex="1"><mxGeometry y="150" width="160" height="40" as="geometry"/></mxCell><mxCell id="OKaJMd2PWV-_dP1DHxQt-9" value="АФИША" style="swimlane;childLayout=stackLayout;horizontal=1;startSize=30;horizontalStack=0;rounded=1;fontSize=14;fontStyle=0;strokeWidth=2;resizeParent=0;resizeLast=1;shadow=0;dashed=0;align=center;fillColor=#F2CC8F;strokeColor=#E07A5F;fontColor=#393C56;" parent="1" vertex="1"><mxGeometry x="520" y="40" width="160" height="110" as="geometry"><mxRectangle x="520" y="40" width="80" height="30" as="alternateBounds"/></mxGeometry></mxCell><mxCell id="OKaJMd2PWV-_dP1DHxQt-23" style="edgeStyle=none;rounded=0;orthogonalLoop=1;jettySize=auto;html=1;startArrow=classic;startFill=0;endArrow=none;endFill=0;labelBackgroundColor=#F4F1DE;strokeColor=#E07A5F;fontColor=#393C56;" parent="OKaJMd2PWV-_dP1DHxQt-9" target="OKaJMd2PWV-_dP1DHxQt-9" edge="1"><mxGeometry relative="1" as="geometry"><mxPoint x="80" y="120" as="sourcePoint"/></mxGeometry></mxCell><mxCell id="OKaJMd2PWV-_dP1DHxQt-74" value="название спек" style="ellipse;whiteSpace=wrap;html=1;align=center;rounded=0;labelBackgroundColor=none;sketch=0;fontSize=17;fontColor=default;strokeColor=#E07A5F;fillColor=#E07A5F;fontStyle=4" parent="OKaJMd2PWV-_dP1DHxQt-9" vertex="1"><mxGeometry y="30" width="160" height="40" as="geometry"/></mxCell><mxCell id="OKaJMd2PWV-_dP1DHxQt-85" value="месяц" style="ellipse;whiteSpace=wrap;html=1;align=center;fontStyle=4;rounded=0;labelBackgroundColor=none;sketch=0;fontSize=17;fontColor=default;strokeColor=#E07A5F;fillColor=#E07A5F;" parent="OKaJMd2PWV-_dP1DHxQt-9" vertex="1"><mxGeometry y="70" width="160" height="40" as="geometry"/></mxCell><mxCell id="13" style="edgeStyle=orthogonalEdgeStyle;rounded=0;orthogonalLoop=1;jettySize=auto;html=1;exitX=0.5;exitY=1;exitDx=0;exitDy=0;" edge="1" parent="OKaJMd2PWV-_dP1DHxQt-9" source="OKaJMd2PWV-_dP1DHxQt-85" target="OKaJMd2PWV-_dP1DHxQt-85"><mxGeometry relative="1" as="geometry"/></mxCell><mxCell id="OKaJMd2PWV-_dP1DHxQt-20" value="ПОКУПАТЕЛЬ" style="swimlane;childLayout=stackLayout;horizontal=1;startSize=30;horizontalStack=0;rounded=1;fontSize=14;fontStyle=0;strokeWidth=2;resizeParent=0;resizeLast=1;shadow=0;dashed=0;align=center;fillColor=#F2CC8F;strokeColor=#E07A5F;fontColor=#393C56;" parent="1" vertex="1"><mxGeometry x="50" y="900" width="160" height="230" as="geometry"/></mxCell><mxCell id="OKaJMd2PWV-_dP1DHxQt-130" value="UID" style="ellipse;whiteSpace=wrap;html=1;align=center;fontStyle=4;rounded=0;labelBackgroundColor=none;sketch=0;fontSize=17;fontColor=default;strokeColor=#E07A5F;fillColor=#E07A5F;" parent="OKaJMd2PWV-_dP1DHxQt-20" vertex="1"><mxGeometry y="30" width="160" height="40" as="geometry"/></mxCell><mxCell id="OKaJMd2PWV-_dP1DHxQt-132" value="логин" style="ellipse;whiteSpace=wrap;html=1;align=center;rounded=0;labelBackgroundColor=none;sketch=0;fontSize=17;fontColor=#000000;strokeColor=#E07A5F;strokeWidth=2;fillColor=#F2CC8F;gradientColor=none;" parent="OKaJMd2PWV-_dP1DHxQt-20" vertex="1"><mxGeometry y="70" width="160" height="40" as="geometry"/></mxCell><mxCell id="OKaJMd2PWV-_dP1DHxQt-137" value="ФИО" style="ellipse;whiteSpace=wrap;html=1;align=center;rounded=0;labelBackgroundColor=none;sketch=0;fontSize=17;fontColor=#000000;strokeColor=#E07A5F;strokeWidth=2;fillColor=#F2CC8F;gradientColor=none;" parent="OKaJMd2PWV-_dP1DHxQt-20" vertex="1"><mxGeometry y="110" width="160" height="40" as="geometry"/></mxCell><mxCell id="OKaJMd2PWV-_dP1DHxQt-134" value="телефон" style="ellipse;whiteSpace=wrap;html=1;align=center;rounded=0;labelBackgroundColor=none;sketch=0;fontSize=17;fontColor=#000000;strokeColor=#E07A5F;strokeWidth=2;fillColor=#F2CC8F;gradientColor=none;" parent="OKaJMd2PWV-_dP1DHxQt-20" vertex="1"><mxGeometry y="150" width="160" height="40" as="geometry"/></mxCell><mxCell id="14" value="почта" style="ellipse;whiteSpace=wrap;html=1;align=center;rounded=0;labelBackgroundColor=none;sketch=0;fontSize=17;fontColor=#000000;strokeColor=#E07A5F;strokeWidth=2;fillColor=#F2CC8F;gradientColor=none;" vertex="1" parent="OKaJMd2PWV-_dP1DHxQt-20"><mxGeometry y="190" width="160" height="40" as="geometry"/></mxCell><mxCell id="OKaJMd2PWV-_dP1DHxQt-18" value="БИЛЕТ" style="swimlane;childLayout=stackLayout;horizontal=1;startSize=30;horizontalStack=0;rounded=1;fontSize=14;fontStyle=0;strokeWidth=2;resizeParent=0;resizeLast=1;shadow=0;dashed=0;align=center;fillColor=#F2CC8F;strokeColor=#E07A5F;swimlaneFillColor=none;fontColor=#393C56;" parent="1" vertex="1"><mxGeometry x="510" y="900" width="160" height="160" as="geometry"/></mxCell><mxCell id="OKaJMd2PWV-_dP1DHxQt-138" value="номер" style="ellipse;whiteSpace=wrap;html=1;align=center;fontStyle=4;rounded=0;labelBackgroundColor=none;sketch=0;fontSize=17;fontColor=default;strokeColor=#E07A5F;fillColor=#E07A5F;" parent="OKaJMd2PWV-_dP1DHxQt-18" vertex="1"><mxGeometry y="30" width="160" height="50" as="geometry"/></mxCell><mxCell id="OKaJMd2PWV-_dP1DHxQt-142" value="место" style="ellipse;whiteSpace=wrap;html=1;align=center;rounded=0;labelBackgroundColor=none;sketch=0;fontSize=17;fontColor=#000000;strokeColor=#E07A5F;strokeWidth=2;fillColor=#F2CC8F;gradientColor=none;" parent="OKaJMd2PWV-_dP1DHxQt-18" vertex="1"><mxGeometry y="80" width="160" height="40" as="geometry"/></mxCell><mxCell id="OKaJMd2PWV-_dP1DHxQt-157" value="текущая&lt;br&gt;стоимость" style="ellipse;whiteSpace=wrap;html=1;align=center;rounded=0;labelBackgroundColor=none;sketch=0;fontSize=17;fontColor=#000000;strokeColor=#E07A5F;strokeWidth=2;fillColor=#F2CC8F;gradientColor=none;" parent="OKaJMd2PWV-_dP1DHxQt-18" vertex="1"><mxGeometry y="120" width="160" height="40" as="geometry"/></mxCell><mxCell id="OKaJMd2PWV-_dP1DHxQt-22" value="" style="edgeStyle=entityRelationEdgeStyle;fontSize=12;html=1;endArrow=ERoneToMany;startArrow=ERoneToMany;rounded=0;entryX=-0.006;entryY=0.125;entryDx=0;entryDy=0;entryPerimeter=0;labelBackgroundColor=#F4F1DE;strokeColor=#E07A5F;fontColor=#393C56;strokeWidth=2;exitX=1.013;exitY=0.15;exitDx=0;exitDy=0;exitPerimeter=0;" parent="1" source="OKaJMd2PWV-_dP1DHxQt-15" target="OKaJMd2PWV-_dP1DHxQt-7" edge="1"><mxGeometry width="100" height="100" relative="1" as="geometry"><mxPoint x="290" y="330" as="sourcePoint"/><mxPoint x="370" y="360" as="targetPoint"/></mxGeometry></mxCell><mxCell id="OKaJMd2PWV-_dP1DHxQt-43" value="1..n" style="edgeLabel;html=1;align=center;verticalAlign=middle;resizable=0;points=[];fontSize=17;fontColor=default;labelBackgroundColor=none;" parent="OKaJMd2PWV-_dP1DHxQt-22" vertex="1" connectable="0"><mxGeometry x="-0.8003" y="2" relative="1" as="geometry"><mxPoint y="-11" as="offset"/></mxGeometry></mxCell><mxCell id="OKaJMd2PWV-_dP1DHxQt-44" value="0..n" style="edgeLabel;html=1;align=center;verticalAlign=middle;resizable=0;points=[];fontSize=17;fontColor=default;labelBackgroundColor=none;" parent="OKaJMd2PWV-_dP1DHxQt-22" vertex="1" connectable="0"><mxGeometry x="0.8283" y="-1" relative="1" as="geometry"><mxPoint x="-5" y="-16" as="offset"/></mxGeometry></mxCell><mxCell id="OKaJMd2PWV-_dP1DHxQt-27" value="" style="edgeStyle=orthogonalEdgeStyle;fontSize=12;html=1;endArrow=ERzeroToMany;startArrow=ERmandOne;rounded=0;entryX=0.25;entryY=1;entryDx=0;entryDy=0;exitX=0.5;exitY=1;exitDx=0;exitDy=0;labelBackgroundColor=#F4F1DE;strokeColor=#E07A5F;fontColor=#393C56;strokeWidth=2;" parent="1" source="OKaJMd2PWV-_dP1DHxQt-1" target="OKaJMd2PWV-_dP1DHxQt-5" edge="1"><mxGeometry width="100" height="100" relative="1" as="geometry"><mxPoint x="242.07999999999993" y="106.99000000000001" as="sourcePoint"/><mxPoint x="390" y="70" as="targetPoint"/><Array as="points"><mxPoint x="160" y="240"/><mxPoint x="340" y="240"/></Array></mxGeometry></mxCell><mxCell id="OKaJMd2PWV-_dP1DHxQt-41" value="1" style="edgeLabel;html=1;align=center;verticalAlign=middle;resizable=0;points=[];fontSize=17;fontColor=default;labelBackgroundColor=none;" parent="OKaJMd2PWV-_dP1DHxQt-27" vertex="1" connectable="0"><mxGeometry x="-0.765" y="4" relative="1" as="geometry"><mxPoint x="6" y="-13" as="offset"/></mxGeometry></mxCell><mxCell id="OKaJMd2PWV-_dP1DHxQt-42" value="0..n" style="edgeLabel;html=1;align=center;verticalAlign=middle;resizable=0;points=[];fontSize=17;fontColor=default;labelBackgroundColor=none;" parent="OKaJMd2PWV-_dP1DHxQt-27" vertex="1" connectable="0"><mxGeometry x="0.5618" relative="1" as="geometry"><mxPoint x="-9" y="-30" as="offset"/></mxGeometry></mxCell><mxCell id="OKaJMd2PWV-_dP1DHxQt-28" value="" style="edgeStyle=entityRelationEdgeStyle;fontSize=12;html=1;endArrow=ERoneToMany;startArrow=ERzeroToOne;rounded=0;entryX=0;entryY=0.094;entryDx=0;entryDy=0;labelBackgroundColor=#F4F1DE;strokeColor=#E07A5F;fontColor=#393C56;strokeWidth=2;verticalAlign=top;entryPerimeter=0;exitX=1;exitY=0.105;exitDx=0;exitDy=0;exitPerimeter=0;startFill=1;" parent="1" source="OKaJMd2PWV-_dP1DHxQt-20" target="OKaJMd2PWV-_dP1DHxQt-18" edge="1"><mxGeometry width="100" height="100" relative="1" as="geometry"><mxPoint x="260" y="930" as="sourcePoint"/><mxPoint x="450" y="540" as="targetPoint"/></mxGeometry></mxCell><mxCell id="OKaJMd2PWV-_dP1DHxQt-30" value="0..1" style="edgeLabel;align=center;verticalAlign=middle;resizable=0;points=[];fontColor=default;fontSize=17;horizontal=1;labelBackgroundColor=none;html=1;" parent="OKaJMd2PWV-_dP1DHxQt-28" vertex="1" connectable="0"><mxGeometry x="-0.6201" y="2" relative="1" as="geometry"><mxPoint x="-5" y="-8" as="offset"/></mxGeometry></mxCell><mxCell id="OKaJMd2PWV-_dP1DHxQt-32" value="1..n" style="edgeLabel;html=1;align=center;verticalAlign=middle;resizable=0;points=[];fontSize=17;fontColor=default;labelBackgroundColor=none;" parent="OKaJMd2PWV-_dP1DHxQt-28" vertex="1" connectable="0"><mxGeometry x="0.6843" y="-1" relative="1" as="geometry"><mxPoint x="-9" y="-11" as="offset"/></mxGeometry></mxCell><mxCell id="OKaJMd2PWV-_dP1DHxQt-29" value="" style="fontSize=12;html=1;endArrow=ERone;startArrow=ERzeroToMany;rounded=0;exitX=0.5;exitY=0;exitDx=0;exitDy=0;labelBackgroundColor=#F4F1DE;strokeColor=#E07A5F;fontColor=#393C56;strokeWidth=2;endFill=0;entryX=0.5;entryY=1;entryDx=0;entryDy=0;" parent="1" source="OKaJMd2PWV-_dP1DHxQt-18" target="2" edge="1"><mxGeometry width="100" height="100" relative="1" as="geometry"><mxPoint x="470" y="550" as="sourcePoint"/><mxPoint x="390" y="800" as="targetPoint"/></mxGeometry></mxCell><mxCell id="OKaJMd2PWV-_dP1DHxQt-33" value="1" style="edgeLabel;html=1;align=center;verticalAlign=middle;resizable=0;points=[];fontSize=17;fontColor=default;labelBackgroundColor=none;" parent="OKaJMd2PWV-_dP1DHxQt-29" vertex="1" connectable="0"><mxGeometry x="0.4889" y="-2" relative="1" as="geometry"><mxPoint x="18" y="-8" as="offset"/></mxGeometry></mxCell><mxCell id="OKaJMd2PWV-_dP1DHxQt-34" value="0..n" style="edgeLabel;html=1;align=center;verticalAlign=middle;resizable=0;points=[];fontSize=17;fontColor=default;labelBackgroundColor=none;" parent="OKaJMd2PWV-_dP1DHxQt-29" vertex="1" connectable="0"><mxGeometry x="-0.3333" y="2" relative="1" as="geometry"><mxPoint x="61" y="17" as="offset"/></mxGeometry></mxCell><mxCell id="OKaJMd2PWV-_dP1DHxQt-26" value="" style="fontSize=12;html=1;endArrow=ERmandOne;endFill=0;startArrow=ERzeroToMany;rounded=0;exitX=0.5;exitY=1;exitDx=0;exitDy=0;strokeWidth=2;strokeColor=#E07A5F;shadow=0;labelBackgroundColor=#F4F1DE;fontColor=#393C56;entryX=0.5;entryY=0;entryDx=0;entryDy=0;" parent="1" source="OKaJMd2PWV-_dP1DHxQt-9" target="OKaJMd2PWV-_dP1DHxQt-7" edge="1"><mxGeometry width="100" height="100" relative="1" as="geometry"><mxPoint x="600" y="220" as="sourcePoint"/><mxPoint x="580" y="260" as="targetPoint"/></mxGeometry></mxCell><mxCell id="OKaJMd2PWV-_dP1DHxQt-35" value="1" style="edgeLabel;html=1;align=center;verticalAlign=middle;resizable=0;points=[];fontSize=17;fontColor=default;labelBackgroundColor=none;" parent="OKaJMd2PWV-_dP1DHxQt-26" vertex="1" connectable="0"><mxGeometry x="0.56" y="-2" relative="1" as="geometry"><mxPoint x="18" y="15" as="offset"/></mxGeometry></mxCell><mxCell id="OKaJMd2PWV-_dP1DHxQt-36" value="0..n" style="edgeLabel;html=1;align=center;verticalAlign=middle;resizable=0;points=[];fontSize=17;fontColor=default;labelBackgroundColor=none;" parent="OKaJMd2PWV-_dP1DHxQt-26" vertex="1" connectable="0"><mxGeometry x="-0.48" relative="1" as="geometry"><mxPoint x="20" y="9" as="offset"/></mxGeometry></mxCell><mxCell id="OKaJMd2PWV-_dP1DHxQt-25" value="" style="fontSize=12;html=1;endArrow=ERoneToMany;startArrow=ERzeroToMany;rounded=0;entryX=0.5;entryY=1;entryDx=0;entryDy=0;labelBackgroundColor=#F4F1DE;strokeColor=#E07A5F;fontColor=#393C56;strokeWidth=2;exitX=0.138;exitY=-0.012;exitDx=0;exitDy=0;exitPerimeter=0;edgeStyle=elbowEdgeStyle;elbow=vertical;" parent="1" source="OKaJMd2PWV-_dP1DHxQt-7" target="OKaJMd2PWV-_dP1DHxQt-5" edge="1"><mxGeometry width="100" height="100" relative="1" as="geometry"><mxPoint x="544" y="280" as="sourcePoint"/><mxPoint x="460.96000000000004" y="242.01999999999998" as="targetPoint"/><Array as="points"><mxPoint x="460" y="240"/></Array></mxGeometry></mxCell><mxCell id="OKaJMd2PWV-_dP1DHxQt-37" value="0..n" style="edgeLabel;html=1;align=center;verticalAlign=middle;resizable=0;points=[];fontSize=17;fontColor=default;labelBackgroundColor=none;" parent="OKaJMd2PWV-_dP1DHxQt-25" vertex="1" connectable="0"><mxGeometry x="-0.338" y="-1" relative="1" as="geometry"><mxPoint x="3" y="51" as="offset"/></mxGeometry></mxCell><mxCell id="OKaJMd2PWV-_dP1DHxQt-40" value="1..n" style="edgeLabel;html=1;align=center;verticalAlign=middle;resizable=0;points=[];fontSize=17;fontColor=default;labelBackgroundColor=none;" parent="OKaJMd2PWV-_dP1DHxQt-25" vertex="1" connectable="0"><mxGeometry x="0.7428" y="-4" relative="1" as="geometry"><mxPoint x="10" y="-16" as="offset"/></mxGeometry></mxCell><mxCell id="2" value="СЕАНС" style="swimlane;childLayout=stackLayout;horizontal=1;startSize=30;horizontalStack=0;rounded=1;fontSize=14;fontStyle=0;strokeWidth=2;resizeParent=0;resizeLast=1;shadow=0;dashed=0;align=center;fillColor=#F2CC8F;strokeColor=#E07A5F;fontColor=#393C56;" parent="1" vertex="1"><mxGeometry x="300" y="540" width="160" height="230" as="geometry"><mxRectangle x="520" y="40" width="80" height="30" as="alternateBounds"/></mxGeometry></mxCell><mxCell id="3" style="edgeStyle=none;rounded=0;orthogonalLoop=1;jettySize=auto;html=1;startArrow=classic;startFill=0;endArrow=none;endFill=0;labelBackgroundColor=#F4F1DE;strokeColor=#E07A5F;fontColor=#393C56;" parent="2" target="2" edge="1"><mxGeometry relative="1" as="geometry"><mxPoint x="80" y="120" as="sourcePoint"/></mxGeometry></mxCell><mxCell id="8" value="id=m+d+t" style="ellipse;whiteSpace=wrap;html=1;align=center;fontStyle=4;fillColor=#E07A5F;fontColor=#000000;fontSize=17;" parent="2" vertex="1"><mxGeometry y="30" width="160" height="40" as="geometry"/></mxCell><mxCell id="4" value="название спек" style="ellipse;whiteSpace=wrap;html=1;align=center;rounded=0;labelBackgroundColor=none;sketch=0;fontSize=17;fontColor=default;strokeColor=#E07A5F;fillColor=#F2CC8F;" parent="2" vertex="1"><mxGeometry y="70" width="160" height="40" as="geometry"/></mxCell><mxCell id="5" value="месяц" style="ellipse;whiteSpace=wrap;html=1;align=center;fontStyle=0;rounded=0;labelBackgroundColor=none;sketch=0;fontSize=17;fontColor=default;strokeColor=#E07A5F;fillColor=#F2CC8F;" parent="2" vertex="1"><mxGeometry y="110" width="160" height="40" as="geometry"/></mxCell><mxCell id="6" value="день" style="ellipse;whiteSpace=wrap;html=1;align=center;fontStyle=0;rounded=0;labelBackgroundColor=none;sketch=0;fontSize=17;fontColor=default;strokeColor=#E07A5F;fillColor=#F2CC8F;" parent="2" vertex="1"><mxGeometry y="150" width="160" height="40" as="geometry"/></mxCell><mxCell id="7" value="время" style="ellipse;whiteSpace=wrap;html=1;align=center;fontStyle=0;rounded=0;labelBackgroundColor=none;sketch=0;fontSize=17;fontColor=default;strokeColor=#E07A5F;fillColor=#F2CC8F;" parent="2" vertex="1"><mxGeometry y="190" width="160" height="40" as="geometry"/></mxCell><mxCell id="10" value="" style="edgeStyle=orthogonalEdgeStyle;fontSize=12;html=1;endArrow=ERoneToMany;startArrow=ERmandOne;rounded=0;entryX=0.5;entryY=1;entryDx=0;entryDy=0;labelBackgroundColor=#F4F1DE;strokeColor=#E07A5F;fontColor=#393C56;strokeWidth=2;verticalAlign=top;exitX=1;exitY=0.5;exitDx=0;exitDy=0;" parent="1" source="5" target="OKaJMd2PWV-_dP1DHxQt-113" edge="1"><mxGeometry width="100" height="100" relative="1" as="geometry"><mxPoint x="440" y="639.9999999999998" as="sourcePoint"/><mxPoint x="740" y="650.1299999999999" as="targetPoint"/></mxGeometry></mxCell><mxCell id="11" value="1" style="edgeLabel;align=center;verticalAlign=middle;resizable=0;points=[];fontColor=default;fontSize=17;horizontal=1;labelBackgroundColor=none;html=1;" parent="10" vertex="1" connectable="0"><mxGeometry x="-0.6201" y="2" relative="1" as="geometry"><mxPoint x="-22" y="-8" as="offset"/></mxGeometry></mxCell><mxCell id="12" value="1..n" style="edgeLabel;html=1;align=center;verticalAlign=middle;resizable=0;points=[];fontSize=17;fontColor=default;labelBackgroundColor=none;" parent="10" vertex="1" connectable="0"><mxGeometry x="0.6843" y="-1" relative="1" as="geometry"><mxPoint x="-21" y="-11" as="offset"/></mxGeometry></mxCell><mxCell id="15" value="СТОИМОСТЬ" style="swimlane;childLayout=stackLayout;horizontal=1;startSize=30;horizontalStack=0;rounded=1;fontSize=14;fontStyle=0;strokeWidth=2;resizeParent=0;resizeLast=1;shadow=0;dashed=0;align=center;fillColor=#F2CC8F;strokeColor=#E07A5F;swimlaneFillColor=none;fontColor=#393C56;" vertex="1" parent="1"><mxGeometry x="410" y="1150" width="160" height="200" as="geometry"/></mxCell><mxCell id="16" value="id" style="ellipse;whiteSpace=wrap;html=1;align=center;fontStyle=4;rounded=0;labelBackgroundColor=none;sketch=0;fontSize=17;fontColor=default;strokeColor=#E07A5F;fillColor=#E07A5F;" vertex="1" parent="15"><mxGeometry y="30" width="160" height="50" as="geometry"/></mxCell><mxCell id="17" value="стоимость" style="ellipse;whiteSpace=wrap;html=1;align=center;rounded=0;labelBackgroundColor=none;sketch=0;fontSize=17;fontColor=#000000;strokeColor=#E07A5F;strokeWidth=2;fillColor=#F2CC8F;gradientColor=none;" vertex="1" parent="15"><mxGeometry y="80" width="160" height="40" as="geometry"/></mxCell><mxCell id="19" value="с даты" style="ellipse;whiteSpace=wrap;html=1;align=center;rounded=0;labelBackgroundColor=none;sketch=0;fontSize=17;fontColor=#000000;strokeColor=#E07A5F;strokeWidth=2;fillColor=#F2CC8F;gradientColor=none;" vertex="1" parent="15"><mxGeometry y="120" width="160" height="40" as="geometry"/></mxCell><mxCell id="18" value="по дату" style="ellipse;whiteSpace=wrap;html=1;align=center;rounded=0;labelBackgroundColor=none;sketch=0;fontSize=17;fontColor=#000000;strokeColor=#E07A5F;strokeWidth=2;fillColor=#F2CC8F;gradientColor=none;" vertex="1" parent="15"><mxGeometry y="160" width="160" height="40" as="geometry"/></mxCell><mxCell id="20" value="" style="edgeStyle=orthogonalEdgeStyle;fontSize=12;html=1;endArrow=ERoneToMany;entryX=0.451;entryY=-0.016;entryDx=0;entryDy=0;exitX=0.5;exitY=1;exitDx=0;exitDy=0;strokeColor=#E07A5F;strokeWidth=2;entryPerimeter=0;startArrow=ERmandOne;startFill=0;rounded=0;" edge="1" parent="1" source="OKaJMd2PWV-_dP1DHxQt-157" target="15"><mxGeometry width="100" height="100" relative="1" as="geometry"><mxPoint x="560" y="1100" as="sourcePoint"/><mxPoint x="460" y="1200" as="targetPoint"/></mxGeometry></mxCell><mxCell id="23" value="1..n" style="edgeLabel;html=1;align=center;verticalAlign=middle;resizable=0;points=[];labelBackgroundColor=none;fontColor=#000000;fontSize=17;" vertex="1" connectable="0" parent="20"><mxGeometry x="0.5482" y="1" relative="1" as="geometry"><mxPoint x="16" y="24" as="offset"/></mxGeometry></mxCell><mxCell id="24" value="1" style="edgeLabel;html=1;align=center;verticalAlign=middle;resizable=0;points=[];labelBackgroundColor=none;fontColor=#000000;fontSize=17;" vertex="1" connectable="0" parent="20"><mxGeometry x="-0.8647" y="-1" relative="1" as="geometry"><mxPoint x="11" as="offset"/></mxGeometry></mxCell></root></mxGraphModel></diagram></mxfile>